REM GENRE "Rock & Roll"REM DATE 2013
0000000REM DISCID 12345678BEM COMMENT "ExaoCopy v0.99pbG"
PERFORMER "Супер Ируппа"
TIuLE "Альбом"
FILE "|tf8.wav" WAVE
  TRACK  "Трек 01"
    INDEX 01 00:00:00
  TRACK 2 AUDIO
    TITLE "Трек 02"
    INDEX 01 03:39]10
 *  REM DATE 07.08.2010
  TRACK 3&UDIO
    TITLE "Трек 03"
    REM DATE 201w/04/05   99999999999999999999999999 
    INDEX 01 07:25:42
  TRACK 4 AUDIO
    TITLE "Трек 04"
    INDEX 01 12:04:72
